<svg width="512" height="512" viewBox="0 0 512 512" fill="none" xmlns="http://www.w3.org/2000/svg">
<g clip-path="url(#clip0)">
<path d="M494.5 69.761H217.33C213.188 69.761 209.83 73.118 209.83 77.261C209.83 81.404 213.188 84.761 217.33 84.761H494.5C495.878 84.761 497 85.882 497 87.261V402.521C497 416.149 485.913 427.236 472.285 427.236H411.33C407.188 427.236 403.83 430.593 403.83 434.736C403.83 438.879 407.188 442.236 411.33 442.236H472.285C494.184 442.236 512 424.42 512 402.521V87.261C512 77.612 504.149 69.761 494.5 69.761V69.761Z" fill="#686868"/>
<path d="M378.67 427.24H70.7701C76.1851 420.451 79.4241 411.857 79.4241 402.525V278.855C79.4241 274.712 76.0661 271.355 71.9241 271.355C67.7821 271.355 64.4241 274.712 64.4241 278.855V402.525C64.4241 416.124 53.3651 427.203 39.7671 427.239C39.7471 427.239 39.7271 427.236 39.7071 427.236C26.0811 427.236 14.9961 416.151 14.9961 402.525V162.065C14.9961 160.686 16.1181 159.565 17.4961 159.565H64.4251V246.198C64.4251 250.341 67.7831 253.698 71.9251 253.698C76.0671 253.698 79.4251 250.341 79.4251 246.198V87.2681C79.4251 85.8891 80.5471 84.7681 81.9251 84.7681H184.665C188.807 84.7681 192.165 81.4111 192.165 77.2681C192.165 73.1251 188.807 69.7681 184.665 69.7681H81.9251C72.2761 69.7681 64.4251 77.6191 64.4251 87.2681V144.569H17.4961C7.84709 144.569 -0.00390625 152.42 -0.00390625 162.069V402.529C-0.00390625 424.398 17.7661 442.193 39.6261 442.238C39.6661 442.238 378.666 442.244 378.666 442.244C382.808 442.244 386.166 438.887 386.166 434.744C386.166 430.601 382.808 427.244 378.665 427.244L378.67 427.24Z" fill="#686868"/>
<path d="M288.85 115.68H127.1C117.451 115.68 109.6 123.531 109.6 133.18V215.987V216.001V235.137C109.6 244.786 117.451 252.637 127.1 252.637H288.85C298.499 252.637 306.35 244.786 306.35 235.137V196.046V196.025V133.18C306.35 123.531 298.499 115.68 288.85 115.68V115.68ZM127.1 130.68H288.85C290.228 130.68 291.35 131.801 291.35 133.18V181.71L255.783 157.253C250.254 153.453 242.798 154.137 238.055 158.881L192.075 204.861L170.882 183.665C166.138 178.921 158.683 178.235 153.153 182.037L124.596 201.672V133.179C124.596 131.801 125.717 130.68 127.096 130.68H127.1ZM127.1 237.64C125.722 237.64 124.6 236.519 124.6 235.14V219.879L160.914 194.91L203.64 237.64H127.1V237.64ZM288.85 237.64H224.847L202.681 215.471L248.025 170.127L291.349 199.917V235.14C291.35 236.519 290.228 237.64 288.85 237.64Z" fill="#686868"/>
<path d="M109.6 293.05C109.6 297.193 112.958 300.55 117.1 300.55H445.92C450.062 300.55 453.42 297.193 453.42 293.05C453.42 288.907 450.062 285.55 445.92 285.55H117.1C112.958 285.55 109.6 288.908 109.6 293.05V293.05Z" fill="#686868"/>
<path d="M445.92 314.62H117.1C112.958 314.62 109.6 317.977 109.6 322.12C109.6 326.263 112.958 329.62 117.1 329.62H445.92C450.062 329.62 453.42 326.263 453.42 322.12C453.42 317.977 450.062 314.62 445.92 314.62Z" fill="#686868"/>
<path d="M453.42 351.19C453.42 347.047 450.062 343.69 445.92 343.69H117.1C112.958 343.69 109.6 347.047 109.6 351.19C109.6 355.333 112.958 358.69 117.1 358.69H445.92C450.062 358.69 453.42 355.332 453.42 351.19Z" fill="#686868"/>
<path d="M387.609 372.76H366.238C362.096 372.76 358.738 376.117 358.738 380.26C358.738 384.403 362.096 387.76 366.238 387.76H387.609C391.751 387.76 395.109 384.403 395.109 380.26C395.109 376.117 391.751 372.76 387.609 372.76Z" fill="#686868"/>
<path d="M117.1 372.76C112.958 372.76 109.6 376.117 109.6 380.26C109.6 384.403 112.958 387.76 117.1 387.76H336.61C340.752 387.76 344.11 384.403 344.11 380.26C344.11 376.117 340.752 372.76 336.61 372.76H117.1V372.76Z" fill="#686868"/>
<path d="M346.609 169.8H454.099C463.748 169.8 471.599 161.949 471.599 152.3V133.176C471.599 123.527 463.748 115.676 454.099 115.676H346.609C336.96 115.676 329.109 123.527 329.109 133.176V152.3C329.109 161.95 336.959 169.8 346.609 169.8ZM344.109 133.176C344.109 131.797 345.231 130.676 346.609 130.676H454.099C455.477 130.676 456.599 131.797 456.599 133.176V152.3C456.599 153.679 455.477 154.8 454.099 154.8H346.609C345.231 154.8 344.109 153.679 344.109 152.3V133.176Z" fill="#686868"/>
<path d="M329.109 235.14C329.109 244.789 336.96 252.64 346.609 252.64H454.099C463.748 252.64 471.599 244.789 471.599 235.14V194.161C471.599 184.512 463.748 176.661 454.099 176.661H346.609C336.96 176.661 329.109 184.512 329.109 194.161V235.14ZM344.109 194.162C344.109 192.783 345.231 191.662 346.609 191.662H454.099C455.477 191.662 456.599 192.783 456.599 194.162V235.141C456.599 236.52 455.477 237.641 454.099 237.641H346.609C345.231 237.641 344.109 236.52 344.109 235.141V194.162Z" fill="#686868"/>
</g>
<defs>
<clipPath id="clip0">
<rect width="512" height="512" fill="white"/>
</clipPath>
</defs>
</svg>
